# xmcd
#
# Track frame offsets:
# 150
# 16618
# 33168
# 51077
# 66156
# 82601
# 96773
# 112950
# 120852
# 138808
# 160662
# 176884
# 198978
# 218994
# 230032
# 248754
# 267889
# 282052
# 295789
# 308663
# 321300
# 341434
#
# Disc length: 4767 seconds
#
#
# Revision: 1
# Processed by: cddbd v1.4PL0 Copyright (c) Steve Scherf et al.
# Submitted via: FreeRIP 2.21 
#
DISCID=22129d16
DTITLE=Shania Twain - Gold 2000
DYEAR=2000
DGENRE=Country
TTITLE0=Don't Be Stupid
TTITLE1=When
TTITLE2=Man! I Feel Like A Woman
TTITLE3=You're Still The One (Single Version)
TTITLE4=That Don't Impress Me Much
TTITLE5=Still Under The Water
TTITLE6=Love Gets Me Every Time
TTITLE7=Amneri'Letter
TTITLE8=You Win My Love (Single Mix)
TTITLE9=The Woman In Me
TTITLE10=Honey I'm Home
TTITLE11=From This Moment On
TTITLE12=I'm Outta Here! (Single Mix)
TTITLE13=Dance With The One That Brought You
TTITLE14=Any Man Of Mine
TTITLE15=Home Ain't Where His Heart Is
TTITLE16=No One Needs To Know
TTITLE17=What Made You Say That
TTITLE18=You Lay a Whole Lot Of Love On Me
TTITLE19=God Ain't Gonna Getcha For That
TTITLE20=Whose Bad Have Your Boots Been Under
TTITLE21=You're Still The One (Live)
EXTD=
EXTT0=
EXTT1=
EXTT2=
EXTT3=
EXTT4=
EXTT5=
EXTT6=
EXTT7=
EXTT8=
EXTT9=
EXTT10=
EXTT11=
EXTT12=
EXTT13=
EXTT14=
EXTT15=
EXTT16=
EXTT17=
EXTT18=
EXTT19=
EXTT20=
EXTT21=
PLAYORDER=
